<svg id="圖層_1" data-name="圖層 1" xmlns="http://www.w3.org/2000/svg" viewBox="0 0 43.37 78.9"><defs><style>.cls-1,.cls-2,.cls-3{fill:none;stroke-linejoin:round;stroke-width:1.7px;}.cls-1,.cls-2{stroke:#495338;}.cls-2,.cls-3{stroke-linecap:round;}.cls-3{stroke:#9dd5d3;}</style></defs><title>iconwhite</title><rect class="cls-1" x="11.95" y="9.37" width="19.76" height="7.38"/><line class="cls-2" x1="21.83" y1="45.69" x2="21.83" y2="59.26"/><line class="cls-2" x1="12.21" y1="21.28" x2="31.23" y2="21.28"/><line class="cls-2" x1="7.85" y1="25.83" x2="35.82" y2="25.83"/><line class="cls-2" x1="15.61" y1="31.97" x2="15.7" y2="29.97"/><line class="cls-2" x1="27.91" y1="31.97" x2="27.83" y2="29.97"/><line class="cls-2" x1="9.34" y1="31.53" x2="9.76" y2="29"/><line class="cls-2" x1="34.19" y1="31.54" x2="33.76" y2="28.99"/><line class="cls-2" x1="9.49" y1="45.69" x2="33.79" y2="45.69"/><path class="cls-2" d="M9.49,45.69A158.94,158.94,0,0,1,9.08,62.2"/><line class="cls-2" x1="15.67" y1="51.39" x2="15.7" y2="50.56"/><line class="cls-2" x1="15.64" y1="55.25" x2="15.59" y2="58.84"/><line class="cls-2" x1="28.01" y1="51.42" x2="27.98" y2="50.59"/><line class="cls-2" x1="28.05" y1="55.25" x2="28.09" y2="58.93"/><path class="cls-2" d="M34,45.69a158.18,158.18,0,0,0,.52,16.51"/><line class="cls-2" x1="10.16" y1="41.01" x2="33.53" y2="41.01"/><line class="cls-2" x1="21.83" y1="9.37" x2="21.83" y2="41.01"/><line class="cls-2" x1="27.07" y1="12.96" x2="26.64" y2="13"/><line class="cls-2" x1="17.03" y1="13" x2="16.59" y2="12.96"/><line class="cls-2" x1="13.29" y1="36.04" x2="30.4" y2="36.04"/><line class="cls-3" x1="8.98" y1="66.04" x2="8.98" y2="68.35"/><line class="cls-3" x1="15.39" y1="66.04" x2="15.39" y2="68.35"/><line class="cls-3" x1="21.84" y1="66.04" x2="21.84" y2="68.35"/><line class="cls-3" x1="27.99" y1="66.04" x2="27.99" y2="68.35"/><line class="cls-3" x1="34.49" y1="66.04" x2="34.49" y2="68.35"/></svg>